# xmcd CD database file generated by Grip 2.96
#
# Track frame offsets:
#       150
#       20132
#       44767
#       57262
#       78955
#       95705
#       123950
#       185857
#       208822
#       222852
#       238140
#       257610
#       287222
#       311282
#
# Disc length: 4449 seconds
#
# Revision: 0
# Processed by: cddbd v1.4PL0 Copyright (c) Steve Scherf et al.
# Submitted via: Grip 2.96
#
DISCID=d7115f0e
DTITLE=WolfhoundHaigis - Hallelujah
DYEAR=1900
DGENRE=
TTITLE0=Still Fun
TTITLE1=Facin' The Storm
TTITLE2=Finally
TTITLE3=Changes Without, Changes Within
TTITLE4=A Song For Yemayah
TTITLE5=Truth (Waiting For You)
TTITLE6=Hallelujah
TTITLE7=Rock That Jazz And Funk That Roll
TTITLE8=Live It Up
TTITLE9=Keep On Keepin' On
TTITLE10=Don't Step In It
TTITLE11=The Never Ending Story
TTITLE12=Changes Without, Changes Within (2)
TTITLE13=Still Fun (2)
EXTD=
EXTT0=
EXTT1=
EXTT2=
EXTT3=
EXTT4=
EXTT5=
EXTT6=
EXTT7=
EXTT8=
EXTT9=
EXTT10=
EXTT11=
EXTT12=
EXTT13=
PLAYORDER=
